<?xml version="1.0" encoding="UTF-8"?>
<svg xmlns="http://www.w3.org/2000/svg" width="1200" height="760" viewBox="0 0 1200 760">
<rect width="100%" height="100%" fill="#f8fafc" />
<text x="70" y="40" font-size="28" font-weight="700" fill="#111827">Collision worker benchmark</text>
<text x="70" y="60" font-size="14" fill="#475569">worker counts [4, 8, 12, 14, 16] | bundle sizes [1, 2, 4]</text>
<rect x="70" y="90" width="1060" height="285.0" rx="18" fill="#111827" opacity="0.04" stroke="#cbd5e1" />
<text x="80" y="116" font-size="22" font-weight="700" fill="#111827">Frame rate (simulated game-loop FPS)</text>
<line x1="110" y1="335.0" x2="1090" y2="335.0" stroke="#374151" stroke-width="1.5" />
<line x1="110" y1="110" x2="110" y2="335.0" stroke="#374151" stroke-width="1.5" />
<line x1="110.0" y1="335.0" x2="110.0" y2="341.0" stroke="#374151" />
<text x="110.0" y="359.0" text-anchor="middle" font-size="14" fill="#111827">4</text>
<line x1="355.0" y1="335.0" x2="355.0" y2="341.0" stroke="#374151" />
<text x="355.0" y="359.0" text-anchor="middle" font-size="14" fill="#111827">8</text>
<line x1="600.0" y1="335.0" x2="600.0" y2="341.0" stroke="#374151" />
<text x="600.0" y="359.0" text-anchor="middle" font-size="14" fill="#111827">12</text>
<line x1="845.0" y1="335.0" x2="845.0" y2="341.0" stroke="#374151" />
<text x="845.0" y="359.0" text-anchor="middle" font-size="14" fill="#111827">14</text>
<line x1="1090.0" y1="335.0" x2="1090.0" y2="341.0" stroke="#374151" />
<text x="1090.0" y="359.0" text-anchor="middle" font-size="14" fill="#111827">16</text>
<line x1="104" y1="335.0" x2="110" y2="335.0" stroke="#374151" />
<text x="100" y="340.0" text-anchor="end" font-size="13" fill="#111827">0</text>
<line x1="104" y1="278.8" x2="110" y2="278.8" stroke="#374151" />
<text x="100" y="283.8" text-anchor="end" font-size="13" fill="#111827">22</text>
<line x1="104" y1="222.5" x2="110" y2="222.5" stroke="#374151" />
<text x="100" y="227.5" text-anchor="end" font-size="13" fill="#111827">43</text>
<line x1="104" y1="166.2" x2="110" y2="166.2" stroke="#374151" />
<text x="100" y="171.2" text-anchor="end" font-size="13" fill="#111827">65</text>
<line x1="104" y1="110.0" x2="110" y2="110.0" stroke="#374151" />
<text x="100" y="115.0" text-anchor="end" font-size="13" fill="#111827">87</text>
<rect x="870" y="102" width="14" height="14" fill="#c23b22" />
<text x="890" y="114" font-size="13" fill="#111827">bundle 1</text>
<rect x="870" y="124" width="14" height="14" fill="#1b7f79" />
<text x="890" y="136" font-size="13" fill="#111827">bundle 2</text>
<rect x="870" y="146" width="14" height="14" fill="#2f6fed" />
<text x="890" y="158" font-size="13" fill="#111827">bundle 4</text>
<polyline fill="none" stroke="#c23b22" stroke-width="3" points="110.0,257.5 355.0,207.0 600.0,176.2 845.0,152.0 1090.0,130.5" />
<circle cx="110.0" cy="257.5" r="5" fill="#c23b22" />
<circle cx="355.0" cy="207.0" r="5" fill="#c23b22" />
<circle cx="600.0" cy="176.2" r="5" fill="#c23b22" />
<circle cx="845.0" cy="152.0" r="5" fill="#c23b22" />
<circle cx="1090.0" cy="130.5" r="5" fill="#c23b22" />
<polyline fill="none" stroke="#1b7f79" stroke-width="3" points="110.0,257.4 355.0,204.9 600.0,178.6 845.0,175.6 1090.0,133.4" />
<circle cx="110.0" cy="257.4" r="5" fill="#1b7f79" />
<circle cx="355.0" cy="204.9" r="5" fill="#1b7f79" />
<circle cx="600.0" cy="178.6" r="5" fill="#1b7f79" />
<circle cx="845.0" cy="175.6" r="5" fill="#1b7f79" />
<circle cx="1090.0" cy="133.4" r="5" fill="#1b7f79" />
<polyline fill="none" stroke="#2f6fed" stroke-width="3" points="110.0,260.0 355.0,200.5 600.0,211.6 845.0,215.2 1090.0,142.4" />
<circle cx="110.0" cy="260.0" r="5" fill="#2f6fed" />
<circle cx="355.0" cy="200.5" r="5" fill="#2f6fed" />
<circle cx="600.0" cy="211.6" r="5" fill="#2f6fed" />
<circle cx="845.0" cy="215.2" r="5" fill="#2f6fed" />
<circle cx="1090.0" cy="142.4" r="5" fill="#2f6fed" />
<rect x="70" y="425.0" width="1060" height="285.0" rx="18" fill="#111827" opacity="0.04" stroke="#cbd5e1" />
<text x="80" y="451.0" font-size="22" font-weight="700" fill="#111827">Collision checks per second</text>
<line x1="110" y1="670.0" x2="1090" y2="670.0" stroke="#374151" stroke-width="1.5" />
<line x1="110" y1="445.0" x2="110" y2="670.0" stroke="#374151" stroke-width="1.5" />
<line x1="110.0" y1="670.0" x2="110.0" y2="676.0" stroke="#374151" />
<text x="110.0" y="694.0" text-anchor="middle" font-size="14" fill="#111827">4</text>
<line x1="355.0" y1="670.0" x2="355.0" y2="676.0" stroke="#374151" />
<text x="355.0" y="694.0" text-anchor="middle" font-size="14" fill="#111827">8</text>
<line x1="600.0" y1="670.0" x2="600.0" y2="676.0" stroke="#374151" />
<text x="600.0" y="694.0" text-anchor="middle" font-size="14" fill="#111827">12</text>
<line x1="845.0" y1="670.0" x2="845.0" y2="676.0" stroke="#374151" />
<text x="845.0" y="694.0" text-anchor="middle" font-size="14" fill="#111827">14</text>
<line x1="1090.0" y1="670.0" x2="1090.0" y2="676.0" stroke="#374151" />
<text x="1090.0" y="694.0" text-anchor="middle" font-size="14" fill="#111827">16</text>
<line x1="104" y1="670.0" x2="110" y2="670.0" stroke="#374151" />
<text x="100" y="675.0" text-anchor="end" font-size="13" fill="#111827">0</text>
<line x1="104" y1="613.8" x2="110" y2="613.8" stroke="#374151" />
<text x="100" y="618.8" text-anchor="end" font-size="13" fill="#111827">1391</text>
<line x1="104" y1="557.5" x2="110" y2="557.5" stroke="#374151" />
<text x="100" y="562.5" text-anchor="end" font-size="13" fill="#111827">2781</text>
<line x1="104" y1="501.2" x2="110" y2="501.2" stroke="#374151" />
<text x="100" y="506.2" text-anchor="end" font-size="13" fill="#111827">4172</text>
<line x1="104" y1="445.0" x2="110" y2="445.0" stroke="#374151" />
<text x="100" y="450.0" text-anchor="end" font-size="13" fill="#111827">5563</text>
<rect x="870" y="437.0" width="14" height="14" fill="#c23b22" />
<text x="890" y="449.0" font-size="13" fill="#111827">bundle 1</text>
<rect x="870" y="459.0" width="14" height="14" fill="#1b7f79" />
<text x="890" y="471.0" font-size="13" fill="#111827">bundle 2</text>
<rect x="870" y="481.0" width="14" height="14" fill="#2f6fed" />
<text x="890" y="493.0" font-size="13" fill="#111827">bundle 4</text>
<polyline fill="none" stroke="#c23b22" stroke-width="3" points="110.0,592.5 355.0,542.0 600.0,511.2 845.0,487.0 1090.0,465.5" />
<circle cx="110.0" cy="592.5" r="5" fill="#c23b22" />
<circle cx="355.0" cy="542.0" r="5" fill="#c23b22" />
<circle cx="600.0" cy="511.2" r="5" fill="#c23b22" />
<circle cx="845.0" cy="487.0" r="5" fill="#c23b22" />
<circle cx="1090.0" cy="465.5" r="5" fill="#c23b22" />
<polyline fill="none" stroke="#1b7f79" stroke-width="3" points="110.0,592.4 355.0,539.9 600.0,513.6 845.0,510.6 1090.0,468.4" />
<circle cx="110.0" cy="592.4" r="5" fill="#1b7f79" />
<circle cx="355.0" cy="539.9" r="5" fill="#1b7f79" />
<circle cx="600.0" cy="513.6" r="5" fill="#1b7f79" />
<circle cx="845.0" cy="510.6" r="5" fill="#1b7f79" />
<circle cx="1090.0" cy="468.4" r="5" fill="#1b7f79" />
<polyline fill="none" stroke="#2f6fed" stroke-width="3" points="110.0,595.0 355.0,535.5 600.0,546.6 845.0,550.2 1090.0,477.4" />
<circle cx="110.0" cy="595.0" r="5" fill="#2f6fed" />
<circle cx="355.0" cy="535.5" r="5" fill="#2f6fed" />
<circle cx="600.0" cy="546.6" r="5" fill="#2f6fed" />
<circle cx="845.0" cy="550.2" r="5" fill="#2f6fed" />
<circle cx="1090.0" cy="477.4" r="5" fill="#2f6fed" />
</svg>